<svg xmlns="http://www.w3.org/2000/svg" width="36.397" height="33.5" viewBox="0 0 36.397 33.5">
  <g id="Group_159" data-name="Group 159" transform="translate(296 -998.5)">
    <path id="Path_101" data-name="Path 101" d="M-285.5,1031.5h7.4v-10.184l-10.171-9.6a.781.781,0,0,0-.536-.213h-2.69v-6.689a.748.748,0,0,0-.288-.6,3.093,3.093,0,0,0-1.712-.715,2.948,2.948,0,0,0-1.655.7.887.887,0,0,0-.345.7V1016.5a4.938,4.938,0,0,0,1,3c1,1,7.7,7.049,7.7,7.049v4.951Z" fill="none" stroke="#000" stroke-linecap="round" stroke-miterlimit="10" stroke-width="1"/>
    <path id="Path_102" data-name="Path 102" d="M-284.5,1020.5l-6.636-5.688a1.042,1.042,0,0,1-.364-.792v-2.52" fill="none" stroke="#000" stroke-linecap="round" stroke-miterlimit="10" stroke-width="1"/>
    <g id="Group_66" data-name="Group 66">
      <path id="Path_103" data-name="Path 103" d="M-277.5,1021.316l10.172-9.6a.779.779,0,0,1,.536-.213h2.689v-6.689a.751.751,0,0,1,.288-.6,3.1,3.1,0,0,1,1.712-.715,2.951,2.951,0,0,1,1.656.7.886.886,0,0,1,.344.7V1016.5a4.938,4.938,0,0,1-1,3c-1,1-7.7,7.049-7.7,7.049v4.951h-8.7" fill="none" stroke="#000" stroke-linecap="round" stroke-miterlimit="10" stroke-width="1"/>
      <path id="Path_104" data-name="Path 104" d="M-271.1,1020.5l6.636-5.688a1.042,1.042,0,0,0,.364-.792v-2.52" fill="none" stroke="#000" stroke-linecap="round" stroke-miterlimit="10" stroke-width="1"/>
    </g>
    <path id="Path_105" data-name="Path 105" d="M-269.48,1000.55a5.293,5.293,0,0,0-7.485,0l-.535.535-.535-.535a5.293,5.293,0,0,0-7.485,0,5.294,5.294,0,0,0,0,7.486l.534.535h0l7.486,7.485,7.486-7.485h0l.534-.535A5.294,5.294,0,0,0-269.48,1000.55Z" fill="none" stroke="#000" stroke-linecap="round" stroke-miterlimit="10" stroke-width="1"/>
  </g>
</svg>
