<svg xmlns="http://www.w3.org/2000/svg" width="193.294" height="202.47" viewBox="0 0 193.294 202.47">
  <g id="Group_57" data-name="Group 57" transform="translate(-503.757 -28.378)">
    <path id="Path_77" data-name="Path 77" d="M675.228,121.165v-2.186c10.09-1.411,18.286-5.53,17.521-19.771-.936-17.432-14.94-43.424-27.895-42.728-3.172.17-8.03-.738-12.725-1.116a70.36,70.36,0,0,0-25-14.083c.009-.1.015-.2.015-.3,0-3.6-5.765-6.524-12.877-6.524a22.913,22.913,0,0,0-6.7.951l.456-.977c-6.939.213-19.106,3.638-32.588,12.018-1.525.948-8.324,2.753-14.316,8.825-5.094.286-10.6,1.4-14.072,1.209-12.955-.7-24.215,12.871-25.151,30.3-.118,2.2,1.062,17.03,3.73,23.308.772,1.818,1.617,2.3,5.461,3.132a60.719,60.719,0,0,0,9.737,1.36v.889c-5.62,3.621-11,16.537-13.714,19.977-9.616,12.2-12.439,25-12.439,31.907,0,24.45,12.741,43.068,25.714,43.068.142,0,.291.008.439.014v3.527c0,.269.008.536.022.8a7.589,7.589,0,0,1,1.206.514.7.7,0,0,1-.335.084,11.549,11.549,0,0,0,1.644,0c1.124-.05,2.236-.257,3.359-.332a21.457,21.457,0,0,1,3.419.062c.284.026,3.276.29,2.047.378,2.81-.2,4.863-1.293,7.738-.353a10.608,10.608,0,0,1,3.71,2.149c5.458-.57,9.938,1.947,14.532,4.5,4.305,2.394,8.806,4.417,13.215,6.608a5.69,5.69,0,0,1,1.128.744h32.4a9.357,9.357,0,0,1,2.528-1.467c2.028-.789,3.993-1.728,5.965-2.65a7.649,7.649,0,0,1,1.012-1.431c2.657-2.943,6.418-3.879,10.191-4.324.909-.107,1.818-.174,2.729-.234a7.233,7.233,0,0,1,3.181-1.8c7.047,2.545,18.8-1.884,21.2-2.618,3.143-.96,7.57-2.648,13.866-10.489,7.759-9.664,12.893-22.154,12.893-29.385C698.48,155.374,686.611,130.634,675.228,121.165Z" transform="translate(-5.308 -2.941)" fill="#fff"/>
    <g id="Group_56" data-name="Group 56" transform="translate(503.757 28.378)">
      <path id="Path_78" data-name="Path 78" d="M791.976,258.973c-3.846-.575-7.664-1.81-9.3-5.678-1.357-5.453,1.932-7.964,7.036-8.918v-.253c-.429-.2-1.761-.528-2.665-.879-1.81-1.079-2.586-1.707-3.264-3.671l.072-2.058a9.252,9.252,0,0,1,1.535-2.965h.2v-.128a15.122,15.122,0,0,1,6.814-2.536,10.074,10.074,0,0,1,6,1.229,4.7,4.7,0,0,1-.579,7.789c-2.007.478-3.693.05-3.615-2.233.651-2.114,3.415-1.307,3.415-3.693-.879-1.989-3.318-1.836-5.3-1.107a12.566,12.566,0,0,0-1.507.654v.125c-2.464,1.454-2.439,6.482-.047,8.064l-.05.2c.929.5,1.354.55,1.229,1.632a25.5,25.5,0,0,1-2.035,2.161,7.209,7.209,0,0,0-.325,8.114c.979,1.032.979,1.032,1.079,1.057v.175a8.338,8.338,0,0,0,1.382.676,6.137,6.137,0,0,0,6.31-.347c1.407-2.639-1.26-2.892-2.943-3.921,0-.05-.05-.1-.05-.153h-.2c-1.585-3.064,1.157-4.822,3.968-3.768a5.8,5.8,0,0,1,2.061,7.539c-1.761,2.664-4.422,2.914-7.411,3.164a17.313,17.313,0,0,1-1.81-.275" transform="translate(-639.196 -127.285)" fill="#1a1818"/>
      <path id="Path_79" data-name="Path 79" d="M736.406,231.984c.857-1.532,3.315-.978,4.5-.225.125.2.125.2.2,3.014.025,0,.025.075.128.128.325-.378.325-.378.525-.478v-.128c3.921-3.289,7.992-4.093,12.514-1.557v.128c.2.122.429.3.629.429v.172h.228c.025.2.025.2.6.854.353.606.578,1.207.954,1.785.256.932.531,1.836.806,2.742a29.228,29.228,0,0,1-1.182,9.722c-.75,2.311-1.832,4.7-1.857,7.189.8,1.932,2.136,1.129,3.768.9l.2.028c.428.072.428.425.528.779a1.651,1.651,0,0,1-.729.576,7.771,7.771,0,0,1-2.661.557c-4.249-.957-4.8-3.518-4.7-7.617.1-.7.2-1.382.328-2.136,1.054-3.868,2.614-8.114,1.558-12.163-.225-.622-.5-1.129-.729-1.708-.429-.575-.429-.575-.429-.775h-.2v-.2c-.228-.1-.531-.45-1.51-1.007a10.276,10.276,0,0,0-2.336-.147c-4.5,1.357-5.957,4.624-6.557,8.917-.153,5.025-.279,10.053-.3,15.1a3.207,3.207,0,0,1-4.7-.3c.1-8.189.25-16.36.429-24.574" transform="translate(-616.642 -126.88)" fill="#1a1818"/>
      <path id="Path_80" data-name="Path 80" d="M712.029,225.013c-.1-.025-.2-.05-.354-.1-.7-.128-.9-.25-.8-1.179a3.5,3.5,0,0,1,.832-.2,6.13,6.13,0,0,1,1.182.025,4.847,4.847,0,0,1,3.24,2.764,15.887,15.887,0,0,1,1.557,4.421c.05-.075.125-.075.225-.075a3.51,3.51,0,0,0,.225-.654c1.157-3.818,3.093-7.661.882-11.435-.35-.25-.5-.35-.7-.325-.325.076-.4.553-.5,1.132a5.738,5.738,0,0,0-.429,1h-.225v.153a6.91,6.91,0,0,0-.929.35c-.125,0-.125.05-.228.1a3.045,3.045,0,0,1-3.04-1.858,2.534,2.534,0,0,1,.025-1.61,8.1,8.1,0,0,1,.353-.779,4.035,4.035,0,0,1,2.965-1.207,5.207,5.207,0,0,1,2.036.579c.328.175.628.375.954.578v.2h.225c0,.153.2.253,1.21,1.935a11.807,11.807,0,0,1,.3,6.785c-1.082,3.343-2.261,6.557-3.014,9.95-.128.653-.2,1.354-.353,2.032-.076,3.749-.15,7.542-.2,11.36a1.7,1.7,0,0,1-1.657,1.029,13.213,13.213,0,0,1-1.707-.022,3.469,3.469,0,0,0-.9-.354c-.075-.2-.153-.375-.228-.6.275-21.485.275-21.485.178-22.388-.05-.25-.178-.5-.25-.75a1.982,1.982,0,0,0-.857-.857" transform="translate(-604.427 -119.355)" fill="#1a1818"/>
      <path id="Path_81" data-name="Path 81" d="M691.423,87.345a2.439,2.439,0,0,1-1.454-1.782c-.057-.028-.057-.053-.057-.1,0-.028,0-.028.057-.05a4.051,4.051,0,0,1,1.632-1.285,2.029,2.029,0,0,1,1.479,0,2.717,2.717,0,0,1-1.5,3.217Z" transform="translate(-594.25 -55.41)" fill="#1a1818"/>
      <path id="Path_82" data-name="Path 82" d="M673.958,88.447c-1.029-.9-1.81-2.839-.378-3.693a1.912,1.912,0,0,1,.907.225,5.457,5.457,0,0,1,1.507,1.332,5.031,5.031,0,0,0,.125,1.054,1.843,1.843,0,0,1-1.707,1.032,1.5,1.5,0,0,1-.454.05" transform="translate(-585.93 -55.783)" fill="#1a1818"/>
      <path id="Path_83" data-name="Path 83" d="M679.911,253.52c-.582-.125-1.057-.178-1.56-.25-.55-.025-1.054-.154-1.607-.225A18.907,18.907,0,0,1,673,251.46a9.269,9.269,0,0,1-4.068-5.025,5.184,5.184,0,0,1-.228-1.129,12.883,12.883,0,0,1,.1-4.474,2.6,2.6,0,0,0,.025-.4,61.424,61.424,0,0,1,4.5-9.878c.5-1.057,1.053-2.133,1.579-3.189.654-1.483,1.711-3.443.982-5.1a2.416,2.416,0,0,1,.075-.728c.979-1.408,2.061,1.382,2.339,2.111a21.088,21.088,0,0,1-.075,3.014c-1.71,5.378-3.621,10.707-4.674,16.26a11.67,11.67,0,0,0,.953,4.474c.325.475.707.929.957,1.382h.2v.2c.2.078.225.279.4.279v.125a15.793,15.793,0,0,0,2.339,1.2,10.519,10.519,0,0,0,2.161.656,7.715,7.715,0,0,0,4.95-.953V250.1h.2v-.125h.128c.075-.2.2-.378.275-.553a2.363,2.363,0,0,0,.025-1.757,4.259,4.259,0,0,0-2.667-1.735,3.72,3.72,0,0,1-2.258-2.511c.025-1.711.426-2.536,1.933-3.243a4.767,4.767,0,0,1,3.067.025,1.917,1.917,0,0,1,.2.028c.6.475,1.307.85,1.861,1.329.022.15.653.957,1.257,1.936a8.7,8.7,0,0,1,.025,5.475c-.429.807-1.057,1.485-1.435,2.164a20.376,20.376,0,0,1-1.807,1.254.451.451,0,0,0-.279.1,18.285,18.285,0,0,1-5.5.953c-.275,0-.429.075-.628.075" transform="translate(-583.868 -122.083)" fill="#1a1818"/>
      <path id="Path_84" data-name="Path 84" d="M677.122,93.8a11.71,11.71,0,0,1,1.157-4c-.428-1.154-.756-2.361.425-3.186.075.2.25.85.45,1.357.078.1.1.146.178.25a1.783,1.783,0,0,0,1.482.729h.879c0,.628-.429.882-.932,1.029a7.987,7.987,0,0,1-1.632.2c-.075.025-.2.025-.3.05a6.745,6.745,0,0,0-1.107,3.6,17.2,17.2,0,0,0,1.332,2.661c.4.579.754.954,1.107.807.05-.654.05-1.057.5-1.485a.362.362,0,0,0,.075-.05c.4.154.654,1.836.75,2.289a8.717,8.717,0,0,0,3.193,3.918,11.515,11.515,0,0,0,1.785,1.082c.275.025.275.025.325-.025-.375-1.1-.625-2.214-.929-3.393-.1-.553-.125-1.154-.225-1.76a9.034,9.034,0,0,0-.932-1.254c-.678-.932-1.507-1.911-2.135-2.893a3.222,3.222,0,0,0-1.858-.5,3.373,3.373,0,0,1-1.029-.2c0-.125-.028-.225-.028-.35.226-.1.679-.2,1.082-.354.1-.05.1-.075.175-.147,1.332-1.56,3.089-.3,3.871,1.2a5.469,5.469,0,0,1,.5,1.357c.047.1.147.125.325.1a3.837,3.837,0,0,0-.8-2.514,1.727,1.727,0,0,1-.25-.35c-.328-.1-1.36-.475-1.335-.979a6.362,6.362,0,0,1,1.636-.756,1.894,1.894,0,0,1,.428-.025c.122.1.122.1,1.1,1.735,0-.025.1-.05.2-.075a16.6,16.6,0,0,1,1.833-3.471,2.389,2.389,0,0,1,1.307-.979,1.781,1.781,0,0,1,.5-.022,6.036,6.036,0,0,0,.4.779,18.723,18.723,0,0,1,2.386-.2,6.657,6.657,0,0,1,1.485.05c.651.072,1,.372,1,.879-.353.147-.678.325-1,.475a10.975,10.975,0,0,0-1.382,1.057v.5c.929.1,1.079.153,1.053,1.082A5.019,5.019,0,0,1,692.95,93.2a14.745,14.745,0,0,1-2.464,1.179,8.112,8.112,0,0,1-.879.328c-.2.075-.4.15-.575.225v.354c.1.072.15.15.225.175.125,0,.25-.025.35-.025a6.091,6.091,0,0,1,.854-.125,3.448,3.448,0,0,1,2.464.25c.1.125.3.25.453.426v.581a1.73,1.73,0,0,1-.475.275,1.16,1.16,0,0,1-.607.125,4.754,4.754,0,0,0-1.836-.453,2.957,2.957,0,0,0-.854.1,3.542,3.542,0,0,0-1.279.4c-.229.075-.429.2-.632.275a2.654,2.654,0,0,0-.022.4c.225-.078.425-.128.628-.2.4-.075.775-.2,1.179-.279h.978l1.057.028a13.065,13.065,0,0,1,1.36.35,1.862,1.862,0,0,1,.9.6l-.05,2.611c-.075.075-.075.075-.3.1-.2-.3-.3-.35-.6-.775a3.463,3.463,0,0,0-.228-.5,5.327,5.327,0,0,0-2.136-.929,3.572,3.572,0,0,0-.878-.153c-.429-.025-.851-.025-1.279-.025-.553.025-1.057.025-1.51.05-.1.053-.172.128-.172.178a9.353,9.353,0,0,0,1.579,5.05,1.694,1.694,0,0,1,.3.428c.325.25.651.475.957.729h.022a2.461,2.461,0,0,0,0-1.207,2.449,2.449,0,0,1-.075-.831.53.53,0,0,0,.075-.272c.2-.5.428-1.085.957-1.11a1.289,1.289,0,0,1,.325-.022,14.421,14.421,0,0,1-.3,1.807,4.367,4.367,0,0,0,2.314,3.746,6.315,6.315,0,0,0,1.432.6h.022c.907.071,2.189.25,1.438,1.379a3.106,3.106,0,0,1-1.46.15,5.441,5.441,0,0,1-1.482-.5,6.588,6.588,0,0,1-1.558-.882c-.3-.275-.6-.475-.857-.728-.275-.226-.6-.451-.9-.7a5.336,5.336,0,0,0-1.232-.882,7.335,7.335,0,0,0-1.982-.779l-1.182-.025c-.125.05-.25.125-.4.2a3.769,3.769,0,0,0-1.429,1.732h-.429c-.832-1.132.451-2.111,1.3-2.739,0-1.207-2.761-.957-3.415-.929-.025-.028-.025,0-.05.022a2.833,2.833,0,0,0-1.66,1.56,3.459,3.459,0,0,0,0,2.861.386.386,0,0,0,.078.228c.576.707,1.079.957.978,1.807-.25.278-.678.2-1.107.028a4.848,4.848,0,0,1-1.982-1.432l.025-1.457c.147-.525.851-1.81.751-2.311-1.282.175-1.833,2.611-1.307,3.618,0,.453-.428,1.128-.875.854a12.042,12.042,0,0,1-.4-2.008l-.129-.056c-.775.178-2.232,1.36-3.289,1.61a1.012,1.012,0,0,1-.832-.125c-.025-.328-.05-.678-.05-1.082A4.614,4.614,0,0,0,669,108.4c-.05.4-.05.982-.35,1.232,0,.025-.1.05-.2.1a2.419,2.419,0,0,1-.429-.678,3.694,3.694,0,0,1,.025-2.689,3.262,3.262,0,0,1,.378-.775c.025-.053.153-.2.275-.4a4.883,4.883,0,0,0,1.032-1.382,1.543,1.543,0,0,0-.5-.154c-.1-1.029,1.254-1.254,2.536-1.382,1.207-.122,2.46-.147,2.46-.729-.25-.325-.854-.225-1.179-.675,0-.932.832-1.786,1.732-1.257.079.125.079.125.079.678.022.125.122.2.225.325a2.4,2.4,0,0,0,1.3,1.182c.1-.025.153-.025.178-.075,0-.453-.632-.907-.957-1.132-.75-1.532-.325-2.061,1.082-2.561a4.621,4.621,0,0,1,.479.05c.05.125.05.125.05.6-.429,1.529-.154,2.536,1.407,3.189a2.181,2.181,0,0,1,.325.053c.6.022,1.154.122,1.66.147,2.864.3,2.89.3,3.14.3a11.173,11.173,0,0,0-2.264-1.986,4.8,4.8,0,0,0-.851-.2,3.447,3.447,0,0,0-1.407.1.567.567,0,0,1-.178-.078c0-.8.932-.929.957-1.657-.228-.275-.579-.729-.957-1.2-1.029-1.333-2.486-2.89-3.943-2.993a1.858,1.858,0,0,0-.882.128c0,.729.4,1.482.128,2.16-.9,0-1.532-.628-2.414-.656h-.075a6,6,0,0,1-1.357.3c-.325-1.157.478-1.782,1.357-2.083a12.1,12.1,0,0,1,1.382-.4,15.536,15.536,0,0,1,1.86.125c.35,0,.6.05.826.05v-.125a8.762,8.762,0,0,0-.775-1.207,5.526,5.526,0,0,0-.979-1.032,5.517,5.517,0,0,1-2.239-.55,1.537,1.537,0,0,1-.6-1.032,1.284,1.284,0,0,1,.6-.075c.276,0,.579.05.754.05a4.976,4.976,0,0,0,1.532-1.3,9.744,9.744,0,0,1,.025-1.307,1.2,1.2,0,0,1,1.01.425c.422.7.047,1.983-.078,2.839-.025.2-.1.379-.1.526,0,.031.075.1.1.1a27.936,27.936,0,0,0,1.735,2.564c.072,0,.1-.05.2-.05m1.657,9.118c-.5-.022-1.057-.022-1.557,0a19.333,19.333,0,0,0-2.186.428c-.629.153-1.232.3-1.885.454-.2.175-.828.453-1.407.8-.979.553-2.086,1.282-2.111,1.858.175-.025.175-.025,2.061-1.1a.383.383,0,0,0,.25-.15c.354-.128.782-.3,1.207-.478.654-.125,1.257-.3,1.833-.451,1.26-.378,2.514-.707,3.743-1.157,0-.075.053-.15.053-.2M688.35,92.24c-1.2.832-1.632,3.292-1.729,4.55.022-.079.172-.151.3-.151.429-.882.929-1.76,1.408-2.614.275-.425.5-.854.75-1.232.2-.25.4-.478.557-.675a9.462,9.462,0,0,1,.929-.882,24.029,24.029,0,0,1,2.161-1.761c-.05-.072-.05-.122-.1-.2a2.382,2.382,0,0,0-2.058,1.107,8.125,8.125,0,0,0-.678.929.847.847,0,0,1-.25.125c-.253.175-.579.279-.882.5v.1a1.3,1.3,0,0,0-.4.2" transform="translate(-583.49 -56.688)" fill="#1a1818"/>
      <path id="Path_85" data-name="Path 85" d="M607.56,255.125h.325c1.96.779,3.217.528,5.05-.679.078-.275.078-.275,1.235-1.96.779-1.732,1.382-3.568,2.032-5.45-1.457-.782-3.164-1.107-4.572-1.938v-.147a2.893,2.893,0,0,1-1.307-2.992c.55-1.582,1.857-1.786,3.193-.954a29.254,29.254,0,0,0,3.139,3.443c.078-.078.1-.153.2-.2A44.775,44.775,0,0,1,620.4,235.3c.429-.578.854-1.207,1.282-1.76h.1c0-.5.756-1.057,1.607-1.582a17.763,17.763,0,0,1,2.689-1.407c.729-.175,5.528-1.407,4.349.953-1.46.478-1.585,1.079-1.46,2.714.7,2.536,1.435,5,2.214,7.539.426,1.5.854,3.014,1.279,4.472.6.025,1.257.025,1.911.053h.854a7.993,7.993,0,0,1,1.51.35c.4,1.1-.178,1.1-.882,1.157h-.628c-.3-.028-.625-.053-.854-.053-.45,0-.879-.047-1.357-.047a.836.836,0,0,0-.047.172c.45,1.51.875,3.067,1.329,4.575.278.978.5,1.932.753,2.914.075.1.15.125.15.228a.58.58,0,0,1-.15.3,1.172,1.172,0,0,1-.854.753,6.433,6.433,0,0,1-3.243-.15,2.142,2.142,0,0,1-.425-.15c-.2-.178-.2-.178-.553-1.107-.729-2.489-1.432-4.9-2.086-7.389a.31.31,0,0,1-.15-.2c-1.56-.025-3.139-.1-4.6-.1-1.582-.072-3.089-.1-4.65-.2a33.88,33.88,0,0,1-2.911,6.36c-1.51,1.757-1.51,1.757-1.785,1.911v.147a5.174,5.174,0,0,1-6.232.681c-.6-.354-1.029-.828-.1-1.307Zm15.753-21.007c-2.261,3.368-3.214,6.986-4.218,10.929l-.05.578c.729.1,1.457.279,2.086.429h2.032c1.382.025,2.664,0,4.046.025.05-.175.05-.175-1.486-5.653a14.262,14.262,0,0,1-.122-5.153,10.807,10.807,0,0,1,.628-2.061,6.785,6.785,0,0,0,.7-1.479c-.678.225-3.417,1.279-3.443,2.361h-.178Z" transform="translate(-553.906 -126.425)" fill="#1a1818"/>
      <path id="Path_86" data-name="Path 86" d="M565.764,245.689c-.2-.857-.429-1.682-.628-2.436a19.477,19.477,0,0,1,.025-3.393c1.607-5.5,4.572-10.275,7.01-15.4.4-1.257.828-2.364.3-3.618l.025-.782c1.282-1.554,2.336,1.889,2.461,2.764a22.045,22.045,0,0,1-.2,2.264c-1.107,3.718-2.361,7.486-3.443,11.207-.428,1.507-.831,2.989-1.132,4.572l-.025,2.111a10.373,10.373,0,0,0,2.436,4.85c.654.378,1.285.831,1.864,1.232,2.839.854,6.607,1.532,8.392-1.457,0-1.611-.228-1.961-1.585-2.839a11.556,11.556,0,0,1-2.611-1.057v-.2H578.5c-1.382-2.439-.578-4.225,1.933-5.1a5.819,5.819,0,0,1,4.424,1.732,7.459,7.459,0,0,1,1.761,5.025,8.5,8.5,0,0,1-.632,2.665c-.775,1.207-1.2,2.489-4.4,3.492a23.405,23.405,0,0,1-5.15.654c-2.489-.375-2.489-.375-4.018-.7-3.142-1.179-5.3-2.464-6.66-5.578" transform="translate(-533.568 -121.363)" fill="#1a1818"/>
      <path id="Path_87" data-name="Path 87" d="M543.963,54.635a42.129,42.129,0,0,1,4.3-2.136c.628-.275,1.129-.475,1.71-.7a46.159,46.159,0,0,1,6.182-1.935c2.811-.479,2.811-.479,5.047-.779a18.872,18.872,0,0,1,7.992-5.728c.879-.253,1.81-.5,2.764-.7a9.2,9.2,0,0,0,.932-.15,5.735,5.735,0,0,0,.8-.078,23.3,23.3,0,0,1,6.057.128.425.425,0,0,1,.25-.075,47.381,47.381,0,0,1,7.439-6.432,26.321,26.321,0,0,1,2.511-1.707c1.535-.832,2.989-1.486,4.474-2.114,1-.425,1.933-.854,2.965-1.182.2-.1.45-.172.728-.3,1.182-.353,2.286-.729,3.468-1.082.15-.025.3-.1.5-.122,1.582-.3,2.235-.429,3.217-.582.651-.147,1.479-.2,2.839-.425.576-.025,1.179-.05,1.729-.125.632-.025,1.21,0,1.836-.025,1.56,0,3.117.025,4.7.125a2.809,2.809,0,0,1,.631.05c.854.05,1.632.175,2.561.279.25.072.632.122.857.2a13.345,13.345,0,0,1,1.5.3,7.609,7.609,0,0,0,1.035.2c.879.25,1.858.5,2.736.775.578.178,1.132.356,1.76.581.879.325,1.833.625,2.764,1.054a48.312,48.312,0,0,1,8.267,4.446c2.861,2.164,2.989,2.364,3.943,3.093,1.407,1.483,2.789,2.989,4.246,4.447a2.835,2.835,0,0,1,.475.025,26.073,26.073,0,0,1,5.554-.1,18.385,18.385,0,0,1,3.6.779,22.661,22.661,0,0,1,7.464,4.746c.15.154.3.328.451.507.228.275.5.6.728.929.325.1,2.439.425,5.028.954,1.254.354,2.461.729,3.717,1.107.8.3,1.633.651,2.411,1a3.976,3.976,0,0,0,.4.15c.4.2.775.4,1.154.629a52.107,52.107,0,0,1,6.835,4,48.037,48.037,0,0,1,4.271,3.868,33.377,33.377,0,0,1,2.714,3.014c.3.429.679.832.957,1.232v.025c.8,1.132,1.555,2.339,2.336,3.468v.128c.625,1.307,1.279,2.636,1.932,3.993a42.663,42.663,0,0,1,1.911,6.788,24.778,24.778,0,0,1,.654,4.04c.2,6.21-.025,12.517-.125,18.723a2.987,2.987,0,0,0-.1.825,9.742,9.742,0,0,1-.829,2.189,9.451,9.451,0,0,1-4.1,4.421,10.263,10.263,0,0,1-2.336.953,7.225,7.225,0,0,1-1.007.2.852.852,0,0,1-.478.1c0-.022.175-.022.2-.172.128-.128.2-.128.278-.2.35-.2.679-.428,1.007-.653a9.631,9.631,0,0,0,2.411-2.539,7.126,7.126,0,0,0,1.2-3.371c.3-16.707.3-16.707.225-18.036-.047-.757-.2-1.435-.225-2.214A26.946,26.946,0,0,0,694.6,82a31.981,31.981,0,0,0-2.261-6.129,15.388,15.388,0,0,0-.954-1.86,44.25,44.25,0,0,0-2.714-4.225,10.212,10.212,0,0,0-1.107-1.457,37.359,37.359,0,0,0-3.465-3.668,50.442,50.442,0,0,0-6.482-4.522c-.354-.25-.782-.478-1.185-.75-.1-.031-.225-.1-.425-.178a13.452,13.452,0,0,0-1.332-.7,52.893,52.893,0,0,0-9.246-2.965,10.6,10.6,0,0,1-1.732-.253,3.394,3.394,0,0,1-.957-.25,17.692,17.692,0,0,0-10.05-6.157,24.32,24.32,0,0,0-3.8-.6c-1.961.172-3.318.4-3.668.372a45.985,45.985,0,0,0-7.889-7.236,55.05,55.05,0,0,0-7.185-3.893c-.932-.4-1.811-.753-2.789-1.079-.528-.228-1.132-.4-1.71-.607-.7-.2-1.457-.45-2.211-.653-.2-.047-.4-.1-.553-.122-.3-.053-.729-.128-1.029-.178-.478-.1-.979-.175-1.482-.3-1.407-.225-2.689-.378-4.072-.578a5.171,5.171,0,0,0-.857-.075l-3.793-.053-.575-.025a10.4,10.4,0,0,0-1.307.078c-1.51.15-3.067.375-4.524.575-1.279.229-2.511.478-3.793.7-.025,0-.025,0-.1.025-1.107.328-2.239.7-3.342,1.107-.2.075-.454.178-.729.275-.832.278-1.611.581-2.464.929a2.885,2.885,0,0,1-.426.2,38.116,38.116,0,0,0-7.06,4.147,40.177,40.177,0,0,0-6.007,5.278c-2.186-.128-2.186-.128-4.575-.178a25.866,25.866,0,0,0-3.089.478,3.857,3.857,0,0,0-.854.2,18.189,18.189,0,0,0-7.914,3.971c-.553.628-1.079,1.2-1.585,1.761a83.54,83.54,0,0,0-9.3,2.007,43.916,43.916,0,0,0-4.118,1.761,16.859,16.859,0,0,0-1.71.879,49.494,49.494,0,0,0-4.446,2.686c-1.861,1.46-1.861,1.46-4.021,3.4-.2.25-1.633,1.732-3.214,3.54a66.156,66.156,0,0,0-3.646,5.779c-.275.582-.525,1.157-.8,1.738-.25.726-.654,1.454-.9,2.182-.628,1.989-.628,1.989-1.257,4.3-.15,1.329-.35,2.636-.528,3.968l-.25,17.286a13.38,13.38,0,0,0,1.582,4.224c.253.25.554.628.907.979a4.926,4.926,0,0,0,2.336,1.732v.1a9.341,9.341,0,0,1-2.361-.628,10.021,10.021,0,0,1-5.328-4.7,10.274,10.274,0,0,1-.929-2.536c-.1-.328-.128-.728-.228-1.132l.279-16.885c.047-.857.147-1.707.25-2.539.2-1.254.428-2.539.653-3.793.175-.453.275-.9.4-1.332a38.675,38.675,0,0,1,5.554-11.153,25.69,25.69,0,0,1,2.364-3.018c1.482-1.535,3.089-2.992,4.7-4.421,1.482-1.132,3.067-2.16,4.675-3.192" transform="translate(-514.128 -28.378)" fill="#1a1818"/>
      <path id="Path_88" data-name="Path 88" d="M537.135,96.185a38.553,38.553,0,0,0-1.885-5.5c-1.007-.529-2.388-1.182-3.543-.454a3.685,3.685,0,0,1-.1,1.2h-.128v.128h-.2v.178c-.807.225-1.735.447-2.339-.378h-.125a1.519,1.519,0,0,1,2.311-1.836.757.757,0,0,0,.253.253,3.325,3.325,0,0,1,3.54,0,19.138,19.138,0,0,0-.653-2.339h-.1c-.776-1.307-2.511-1.457-3.943-1.482a1.638,1.638,0,0,1-1.107,1.079c-2.136.128-2.989-1.154-1.908-2.811,1.279-.8,2.861-.5,3.168,1.129a16.243,16.243,0,0,1,3.364.779c-.275-1.635-.125-3.568-1.507-4.771a1.46,1.46,0,0,0-.579.275,4.027,4.027,0,0,1-1.382-.178v-.175c-1.182-.6-.428-1.708.25-2.236,1.585-.328,2.086.325,2.136,1.782.3.4.6.832.957,1.235a10.865,10.865,0,0,1,1.054-2.464,1.13,1.13,0,1,1,1.935-1.053c0,.954-.45,1.132-1.357,1.407-.353.5-1.282,1.957-1.007,2.539a3.681,3.681,0,0,1,1.914-.582,1.157,1.157,0,0,1,1.229-.954,3.447,3.447,0,0,1,.7.05c1.861,1.154.454,2.714-.753,2.639a1.361,1.361,0,0,1-1.257-1.154c-.147,0-.325.025-.475.025-1.911,1.054-1.435,2.111-1.132,4.068.078,0,.125.022.2.022v-.1a10.2,10.2,0,0,1,2.361-.979,3.1,3.1,0,0,1,.281-.3c.55-.6,1-.957,1.657-.879a2.515,2.515,0,0,1,.85.225c.2.125.429.378.654.425a26.77,26.77,0,0,1,2.439-3.718h.125a4.771,4.771,0,0,1,1.107-1.029c0-.679-.907-.882-1.107-1.432.05-1.082,1.686-.4,1.885.225h.2v.125h.3a13.753,13.753,0,0,1,5.25-1.329,18.1,18.1,0,0,0-.4-2.564,53.1,53.1,0,0,1,.1-6.157,31.727,31.727,0,0,1,2.035-5.553,33.211,33.211,0,0,0-13.142,3.792c-.55.328-1.182.607-1.707.932a56.312,56.312,0,0,0-5.028,3.393v.128h-.175v.147c-.15,0-.178.15-.35.178v.175h-.1v.1h-.147v.153a.273.273,0,0,0-.2.05c0,.05-.078.1-.078.128h-.1v.147h-.128c0,.154-.2.178-.2.354h-.2a32.573,32.573,0,0,0-3.643,4.6h-.153a15.267,15.267,0,0,1-1.154,1.885c-.429.8-.854,1.657-1.307,2.483a58.654,58.654,0,0,0-2.514,8.042,56.066,56.066,0,0,0-.225,7.664c.125.878.325,1.735.454,2.586a12.448,12.448,0,0,0,4.5,7.363c.425.253.854.529,1.333.754a7.559,7.559,0,0,1,1.107.428c-.429.425-.429.425-.557.729h-.172l-.028.1c-.125.025-.125.025-.753.478a2.509,2.509,0,0,1-2.158,0c.15,1.682,1.532,1.682,3.015,1.707,1.682-.678,4.8-2.386,5.1.729,2.489-.2,3.364-2.511,2.386-4.471h-.125v-.154c-1.357-.825-3.492.028-4.371-1.028-.075-.654-.1-2.261.779-2.433a.527.527,0,0,0-.025-.154,3.51,3.51,0,0,0-4.068,1.079c-.078,0-.2.025-.228.1a6.235,6.235,0,0,1,.478-2.486,5.067,5.067,0,0,1,3.518-2.514c.075-.075.075-.075-.128-.528a8.052,8.052,0,0,1,.025-.879h.178c.072-.125.072-.125.328-.3,1.782-.632,3.211-.025,4.618.8a6.068,6.068,0,0,0,.607.354,16.239,16.239,0,0,0-.2-2.439,10.035,10.035,0,0,0-.325-1.554m-1.382,96.536-.075-.025a35.272,35.272,0,0,0-3.343-1.732,6.173,6.173,0,0,0-2.035-.728,4.778,4.778,0,0,1-.779-.2c-.579-.022-1.107-.125-1.632-.175-.228-.05-.454-.075-.679-.1,2.989-.451,5.979,1.132,8.518,2.539.529.379,1.079.7,1.632,1.107a57.4,57.4,0,0,1,9,8.114h.15l-.05.128h.178c0,.125.122.2.225.325h.178v.153h.1c.05.147.05.147,3.365,3.518h.178a2.4,2.4,0,0,0,.379.5v.253h.147a5.351,5.351,0,0,0,.985.929v.15c.147,0,.325.2.451.3v.175c.175,0,.2.153.528.3v.15c.122,0,.175.178.325.2l-.025.175h.2v.125c.128,0,.25.225.454.353v.125h.178c.175.578,2.036,1.857,2.586,2.286v.125c.428.125.653.553,1.107.553.6-.3,1.254-.529,1.882-.829.25-.125.575-.228.828-.353a.228.228,0,0,1,.1-.022c1.532-.906,2.811-1.81,3.039-1.885v-.128a26.177,26.177,0,0,0,5.228-5.425.743.743,0,0,1,.2-.079c.4.178.679.379,1.082.582a7.184,7.184,0,0,1-1.507,2.261h-.1a11.153,11.153,0,0,1-1.632,1.783v.1h-.178v.122c-.125,0-.2.128-.35.228v.125l-.1-.025c.2,1.029,1.51,2.589,2.061,3.339h.1a6.153,6.153,0,0,0,2.136,2.214,8.839,8.839,0,0,0,3.418,2.361c.122.125.225.125.4.229a3.111,3.111,0,0,0,1.307-.454,9.971,9.971,0,0,0,3.621-2.989A6.439,6.439,0,0,0,581,211.088a1.636,1.636,0,0,1,.1-.325.811.811,0,0,1,.175.175c-.025.025-.025.075-.047.125a10.634,10.634,0,0,1-2.539,3.943.731.731,0,0,0-.025.2c-.3,0-.654.45-.857.653a18.745,18.745,0,0,1-2.411,1.382c0,.025.05.075.05.125a20.091,20.091,0,0,0,5.682,1.761c.954.15,1.932.272,2.886.35.253.025.5.025.779.075h.532a2.447,2.447,0,0,1,.1.8,3.753,3.753,0,0,1-.654.078h-.753a18.836,18.836,0,0,1-2.886-.2c-.732-.072-1.382-.175-2.036-.25-.654-.178-1.307-.3-1.989-.478a1.608,1.608,0,0,0,.606.553v.1a1.756,1.756,0,0,1,.525.425c1.682,1.257,2.136,1.607,2.815,2.036.275.2.6.4.954.653.653.354,1.335.7,1.988,1.026.226.1.451.256.679.357,1.179.578,2.336,1.025,3.417,1.479,1.254.478,2.511.857,3.743,1.21,1.407.4,2.939.729,4.546,1.029l.1.025c.575.025,1.179.1,1.729.175a10.726,10.726,0,0,0,1.26.1c1.182,0,2.286,0,3.414-.025.579,0,1.132,0,1.66-.025a20.061,20.061,0,0,0,2.436-.2c.5-.025.953-.1,1.485-.178a7.707,7.707,0,0,0,1-.2c.954-.1,1.882-.328,2.814-.507.475-.15,1-.225,1.454-.35.1-.025.178-.025.278-.05.957-.3,1.861-.628,2.792-1.007a43.6,43.6,0,0,0,5.9-2.586A31.83,31.83,0,0,0,629,219.209a6.337,6.337,0,0,0-2.764-.429,20.642,20.642,0,0,1-9.321,2.083c-.929.025-1.883,0-2.764-.025h-.075c-.579-.125-1.1-.2-1.657-.278h-.175c-.882-.25-1.735-.5-2.589-.754a3.241,3.241,0,0,0-.629-.122,2.9,2.9,0,0,0-.429-.2c-.475-.2-.979-.45-1.479-.628a3.621,3.621,0,0,0-.654-.25,24.522,24.522,0,0,1-3.42-2.31,25.739,25.739,0,0,1-4.472-4.421.427.427,0,0,0-.1-.2c-.579-.929-1.207-1.908-1.836-2.864-1.182-1.833-2.361-3.668-3.465-5.554a5.307,5.307,0,0,1-.253-.828c-.528-3.039.6-4.8,3.468-6.332a4,4,0,0,1,.45-.1,7.3,7.3,0,0,1,1.885-.2,6.444,6.444,0,0,1,4.322,2.336,3.931,3.931,0,0,0,.3.457,8.335,8.335,0,0,0,4.046,3.543l.025.05s-.025,0-.025.022a9.286,9.286,0,0,1-2.189.882c0,1.029,1.107,1.882,2.114,2.564a9.689,9.689,0,0,0,1.157.7,2.429,2.429,0,0,1,.325.128,9.6,9.6,0,0,0,1.028.426,23.794,23.794,0,0,1,2.789,1.282,6.254,6.254,0,0,1,1.66,1.31,3.417,3.417,0,0,1,.954,2.333,5.571,5.571,0,0,0,1.807-.328,15.8,15.8,0,0,0,1.686-.676c.05-.478-.025-.932.678-.707.05.382.075.729-.328.907-.025,1.657,1.71,3.718,2.867,4.875.776.628,2.232,1.807,3.339,1.836a18.12,18.12,0,0,0,5.453-3.843c.9-.982,2.839-2.792,2.864-4.1a41.792,41.792,0,0,1-3.768-4.6,5.852,5.852,0,0,1,1.329-.654,25.657,25.657,0,0,0,8.592,7.939,19.581,19.581,0,0,0,2.367,1.185c.022-.031.2-.031.225-.031a85.909,85.909,0,0,0,6.857-5.878v-.072a3.169,3.169,0,0,0,.753-.681c.3-.328.628-.579.957-.926,2.964-2.792,5.854-5.607,8.943-8.27a43.747,43.747,0,0,1,3.646-2.661,1.518,1.518,0,0,0,.4-.278c.422-.253.825-.478,1.254-.7a13.591,13.591,0,0,1,8.443-2.211c-.279.05-.553.075-.8.125-1.107.15-2.186.3-3.293.529a30.879,30.879,0,0,0-4.4,2.007,13.448,13.448,0,0,1-1.2.729.555.555,0,0,1-.429.228c-1.307.957-2.664,1.96-4.046,3.093-2.789,2.686-5.979,5.475-8.543,8.464v.1h.1c-.1.1-.225.228-.325.325a.421.421,0,0,1-.128.153,1.2,1.2,0,0,1-.275.047c-1.007,1.232-1.911,2.086-2.01,2.314h-.154c-1.076,1.532-3.389,2.611-4.268,4.246a54.092,54.092,0,0,0,6.957,1.282h.1a43.869,43.869,0,0,0,7.036-.832,28.575,28.575,0,0,0,5.35-2.111,2.717,2.717,0,0,0,.4-.225,9.476,9.476,0,0,0,1.182-.678,25.181,25.181,0,0,0,6.71-6.007v-.225c-1.057-.025-2.089.278-2.111,1.382-.881-.2-.932-1.554-.932-2.235A3.052,3.052,0,0,1,670.3,203.2c0-1.282.428-1.86,1.81-1.96-.1.253-.379.628-.529,1.057-.022,1.154.553,1.582,1.636,2.032a5.14,5.14,0,0,0,2.939-.576,3.557,3.557,0,0,0,1.833-4.446,1.829,1.829,0,0,0-1.582-.782.465.465,0,0,0-.125.025,3.64,3.64,0,0,1-1.054.225c-.328-.978,0-1.5.754-2.182l.022-.228c-1.757-1.229-3.264-1.129-4.3.882-.125-.153-.125-.153-.25-.607a3.849,3.849,0,0,0,.175-.75,3.071,3.071,0,0,1,1.482-1.682,5.522,5.522,0,0,1,2.289-.557c.022-.025.022-.05.05-.05.125,0,.2.05.279.05a1.9,1.9,0,0,1,.4.05c.028.028.028.053.053.053v.025a.509.509,0,0,1,.125.025,5.706,5.706,0,0,1,1.582.9,6.242,6.242,0,0,1,1.157-1.911c.025,0,.025-.05.05-.125.05,0,.05-.025.05-.025a1.756,1.756,0,0,0-.375-1.857s.05-.028.05-.05a1.31,1.31,0,0,1,.775,0c.154.05.328.122.507.2a2.815,2.815,0,0,1,.425.475.51.51,0,0,0,.678.325l.022-.022a.7.7,0,0,0,.328-.075,2.47,2.47,0,0,1,.6-.175,1.143,1.143,0,0,0,.328-.253c1.279-.9,2.461-2.839.225-3.318-.225-.525.5-1.282.932-1.557a.971.971,0,0,0-.428-.7,4.616,4.616,0,0,0-.479-.954,1.783,1.783,0,0,0-.128-.429.386.386,0,0,1-.1-.225,8.484,8.484,0,0,1,.153-2.139c.047-.65.172-1.279.172-1.932a.609.609,0,0,1-.125-.25c-.628-.728-1.2-.707-1.907.047-.1,0-.1,0-.228-.1a1.939,1.939,0,0,1,1.582-2.158,1.8,1.8,0,0,1,.553-.053,2.808,2.808,0,0,1,1.785,1.032h.25a4.2,4.2,0,0,0,1.157-2.789,4.52,4.52,0,0,0-3.117-3.846,2.988,2.988,0,0,0-2.411.3v.053a1.5,1.5,0,0,0-.429,1.1,2.6,2.6,0,0,1-.525-.15c-.857-.275-1.107-1.1-.7-2.158a1.307,1.307,0,0,1-.3.022v-.275c.022-.025.125-.025.2-.053-.325-1.079-.178-2.311.882-2.561a1.854,1.854,0,0,1,.854-.075c0,.4-.1.6-.1,1.029.078.078.1.2.2.225a4.342,4.342,0,0,0,1.254.782,7.425,7.425,0,0,1,1.107.35,6.409,6.409,0,0,1,3.743,3.468h.2v-.25c.5-1.585.225-4.021.225-5.4a1.216,1.216,0,0,0-.125-.45,43.8,43.8,0,0,0-1.607-7.614c-.628-1.56-1.282-3.089-1.911-4.624-.125-.2-.2-.354-.3-.5-.729-1.382-.979-1.81-2.286-4.124-.225-.451-.528-.9-.907-1.507a.28.28,0,0,0-.1-.1c-.882-1.382-1.761-2.664-2.692-4.018-2.055-3.039-4.068-6.135-5.9-9.324a84.435,84.435,0,0,1-5-10.7,16.381,16.381,0,0,0-.65-1.782c-.129-.628-.328-1.257-.507-1.889-.1-.5-.225-1-.35-1.5-.1-.278-.1-.582-.2-.907a54.93,54.93,0,0,0-.929-6.757c-.05-3.371-.05-7.639-2.639-10.228a.128.128,0,0,1,.025-.075,14.685,14.685,0,0,1,2.264.15,11.76,11.76,0,0,0,1.732.528c.1.05.275,0,.325,0a1.311,1.311,0,0,0,.1-.375,10.272,10.272,0,0,0,.05-1.964,8.235,8.235,0,0,0-.4-1.582,14.128,14.128,0,0,0-1.053-2.511,71.269,71.269,0,0,1-5.15-8.743,9.468,9.468,0,0,1-.629-3.192,15.833,15.833,0,0,0,.6-2.589,9.938,9.938,0,0,0-5.553-1.408,3.569,3.569,0,0,1-.4.429c-.4.428-.932.7-1.485.228.025-.807.782-.985,1.51-1.285,0-.025.072-.025.072-.025.1-.475.253-.979.353-1.507.478-2.989.829-7.136-.225-10.425a8.925,8.925,0,0,0-1.282-2.642,45.827,45.827,0,0,0-9.8-.022c-.25.022-.55.047-.879.072-1.31.228-1.31.228-1.507.354V65.9a43.967,43.967,0,0,1,2.283,7.689,36.628,36.628,0,0,1,.582,7.039c-.1,0-.379,0-.729.025a4.114,4.114,0,0,1-1.71-.2c-.279-3.793-.279-3.793-.554-5.753a54.855,54.855,0,0,0-2.461-8.8,40.546,40.546,0,0,0-5.225-8.543c-2.464,0-5.431,3.168-7.138,4.421h-.429v-.625c1.082-1.632,2.564-2.286,4.375-3.267,1.382-.529,2.689-.982,2.789-1.079a37.972,37.972,0,0,0-11.835-9.6,26.145,26.145,0,0,0-2.764-1.279c-.553-.225-1.107-.454-1.708-.654a12.575,12.575,0,0,0-1.457-.5c-.482-.1-.854-.225-1.332-.328a9.35,9.35,0,0,0-1.007-.222c-.5-.128-.954-.225-1.457-.328-1.053-.225-2.061-.4-3.114-.528l-.979-.022c-1.157-.079-2.339-.1-3.5-.154-.4,0-.828.025-1.182.05a12.914,12.914,0,0,0-1.8.1,42.915,42.915,0,0,0-4.575.575c-1.285.2-2.489.478-3.768.754-.982.278-2.013.528-2.992.854-.175.05-.3.078-.425.1-.25.125-.529.2-.754.325a12.432,12.432,0,0,0-1.56.579c-.475.228-.9.45-1.357.675a41.441,41.441,0,0,0-7.032,4.375,40.5,40.5,0,0,0-4.249,3.593v.153c.854.3,1.785.55,2.689.85.325.128.907.4,1.457.654,1.836.882,4.171,2.239,4.171,3.874-.954.072-2.236-1.485-2.789-2.064-.5-.3-.954-.628-1.432-.929a15.4,15.4,0,0,0-2.74-1.407c-.525-.15-1.607-.628-2.186-.453a43.649,43.649,0,0,0-7.689,12.992c-.376,1.332-.8,2.739-1.182,4.121v.125c-.35,1.582-.625,3.918-.779,4.3a32.3,32.3,0,0,1,.832-5.7c.172-.882.429-1.761.679-2.692a40.822,40.822,0,0,1,1.707-4.369c0-.128.075-.225.075-.353a12.164,12.164,0,0,0-2.414-.628c-.225-.05-.475-.075-.776-.125a39.943,39.943,0,0,0-5.682-.3c-1.132.05-2.186.125-3.314.279-2.564,4.193-2.617,9.368-1.71,14.042a1.876,1.876,0,0,1,.175.4c.831.275,1.107.55,1.182,1.357-.453.429-1.3-.225-1.632-.606-1.732-.047-4.171.025-5.531,1.26,0,.275,0,.275.4,1.482a9.814,9.814,0,0,1-.426,3.918c-1.96,3.971-5.025,7.339-6.76,11.332a6.592,6.592,0,0,1-.275.607c-.154.954-.454,2.611.05,3.54.025,0,.072-.072.15-.1a8.545,8.545,0,0,1,3.921-.5c-1.582,1.561-2.214,4.021-2.514,6.057-.15,2.864-.553,5.7-.779,8.543a34.467,34.467,0,0,1-.854,4.071,49.289,49.289,0,0,1-1.786,5.1c-1.229,2.968-2.764,5.9-4.321,8.846-.9,1.357-1.757,2.689-2.539,4.072-3.215,4.621-6.557,8.992-9.422,13.72a52.68,52.68,0,0,0-3.8,7.636,47.8,47.8,0,0,0-1.707,7.586c-.025.228-.1.907-.125,1.735,0,.8-.025,1.66,0,2.289,0,.35.025.625.125.7.075-.053.1-.078.178-.078a7.947,7.947,0,0,1,5.05-3.114h.075c.978-.454.879-.654.879-1.708.728-.253,1.335.3,1.782.8.253.678-.122,1.179-.172,1.833h.05a.881.881,0,0,0-.075.325h-.079a.62.62,0,0,1,.079.229v1.132c-.429.579-.532.854-1.408.854a.206.206,0,0,1-.078-.2c0-.05,0-.075.078-.075a1.458,1.458,0,0,0-1.157-1.21,4.154,4.154,0,0,0-2.867.457c-1.582,1.532-2.261,2.561-1.832,4.725.2.425.6,1.379,1.082,1.379a3.163,3.163,0,0,1,2.133-1,4.553,4.553,0,0,1,1.407.779,1.552,1.552,0,0,1,.328,1.657c-.028,0-.028,0-.354-.3-.022-.078-.1-.125-.122-.2a1.175,1.175,0,0,0-1.686.576c-.025,1.632.629,3.093,0,4.672v.078a1.671,1.671,0,0,1-.228.375c0,.078-.025.1-.025.153a7.029,7.029,0,0,0-.825.979c.325.328,1.279,1.178.979,1.735-.729.1-1.182.3-1.408.953a3.372,3.372,0,0,0,1.783,2.514c.128.075.175.178.353.225a2.678,2.678,0,0,0,.354.125c.05.025.075.025.075.05v-.025a1.19,1.19,0,0,0,.654-.125c.2-.072.2-.1.55-.55.753-.328,1.482-.506,1.707.5-1.529.5-.225,1.758.256,2.411a4.5,4.5,0,0,0,.222.857,5.8,5.8,0,0,1,2.139-.929,3.566,3.566,0,0,0,.876-.05,4.125,4.125,0,0,1,1.888.625,3.629,3.629,0,0,1,1.329,1.407,7.119,7.119,0,0,0,.078,1.082c0,.2-.053.379-.053.55-.175-.15-.275-.55-.578-.953-1.457-1.307-2.311-.907-3.843-.025a3.969,3.969,0,0,0,.628.854,3.019,3.019,0,0,1,.225,1.56c-.35,0-.35,0-.4-.078-2.686-.779-3.089,1.432-2.386,3.443a4.745,4.745,0,0,0,3.768,2.336,2.867,2.867,0,0,0,2.361-1.332c.053-.475.2-1.279-.35-1.5v-.279c1.407.279,1.635.628,1.732,2.011a8.548,8.548,0,0,1,.96.45c1.053,1.357.875,1.939-.079,3.243h-.15c-.2-1.132-.828-1.332-1.985-1.432-.05.025-.075.075-.154.128a20.3,20.3,0,0,0,4.075,4.368v.1a10.473,10.473,0,0,1,1.357,1.057c.45.25.85.55,1.3.826.528.325.982.657,1.532.982.075.047.075.047.1.075a34.137,34.137,0,0,0,6.71,2.564c1.786.275,1.786.275,4.372.575a49.4,49.4,0,0,0,8.092-1.053c-.2-.528-1.357-1.382-1.885-1.81-1.407-1.582-4.293-4.846-4.5-4.975h-.1c-.047-.05-.047-.122-.122-.15a3.758,3.758,0,0,1-.279-.354h.075c-3.821-4.218-7.485-8.439-12.085-11.835-.528-.4-1.057-.751-1.582-1.129M535.1,86.939c-.7.929.225,2.111.654,3.039a5.179,5.179,0,0,1,1.482-.678,2.7,2.7,0,0,0,.754-.35c.328-.028.6-.053.956-.053a3.439,3.439,0,0,0,.325-1.132,1.281,1.281,0,0,0-.325-.075,2.019,2.019,0,0,1-1.685-1.053c-.025-.1-.1-.225-.15-.4a3.368,3.368,0,0,0-2.011.7m2.136,3.089a1.1,1.1,0,0,0-.753,1.96c.325,1.054.525,1.482.728,2.061.125.478.25,1,.579,2.007,0-.025.075-.072.1-.072.175-2.314.175-2.314.45-4.925a1.285,1.285,0,0,1-1.1-1.032m-.729,25.806a35.643,35.643,0,0,1-1.482,4.118c-3.9,8.4-9.5,15.931-14.449,23.748-1.957,3.115-3.843,6.232-5.476,9.471,0,0-.078.025-.078.075-.3.854-.625,1.732-.979,2.539a31.009,31.009,0,0,1-1.157,3.014c-.2,1-.35,1.432-.5,2.16-.125.6-.325,1.307-.55,2.689a47.993,47.993,0,0,0-.15,8.318c-.075.978-.729,2.814-.075,3.768a4.751,4.751,0,0,1,.6-.1,2.819,2.819,0,0,1,.478-.2,4.46,4.46,0,0,1,1.079-4.325,4.492,4.492,0,0,0,.528-.5c-.025-.429-.025-.857-.025-1.207a1.108,1.108,0,0,0-.451.225c-.681.453-.932,1.332-1.56,1.782-.05,0-.1.025-.222.1a34.4,34.4,0,0,1,.3-5.907,40.861,40.861,0,0,1,1.2-5.928,10.418,10.418,0,0,0,.429-1.2c.5-1.107.7-1.611,1.053-2.439a12.636,12.636,0,0,0,.678-1.707c1.461-2.689,3.093-5.328,4.85-7.917,3.443-5.328,7.314-10.428,10.732-15.756,1.829-3.364,1.829-3.364,2.886-5.6a50.218,50.218,0,0,0,2.639-8.239c.1-.5.225-.929.328-1.407a1.356,1.356,0,0,0-.3.175c-.05.078-.15.1-.325.253m-1,97.693c.45.2,1,.475,1.529.654a29.494,29.494,0,0,0,8.9,2.111,41.052,41.052,0,0,0,4.474,0c.954-.153,2.01-.3,2.989-.429a14.1,14.1,0,0,1,2.636-.553c.932.579,1.836,1.182,2.789,1.783a4.913,4.913,0,0,0,.957.478c.3.178.553.278.779.4a23.648,23.648,0,0,0,6.71,1.735l2.036.025c.979-.025,2.111-.228,2.536-.178.654.607.654.607.854.7v.1c.153.053.153.053,1.485,1.16.025.1.025.122.125.172v.153c.125,0,.125,0,.75.454v.147c.2.028.2.028,3.168,2.186a27.549,27.549,0,0,0,2.814,1.66c.429.25.979.55,1.71.929.425.175.779.354,1.182.557a4.35,4.35,0,0,1,.729.275c1.154.5,2.286.875,3.418,1.279,1.254.429,2.461.807,3.718,1.132.7.15,1.457.354,2.235.525.679.078,1.507.228,2.311.282.6.122,1.257.172,1.81.275a10.966,10.966,0,0,1,1.5.2c1.032-.053,2.114-.078,3.168-.078.932-.025,1.71,0,2.642-.025a10.9,10.9,0,0,1,1.454-.175c.528-.075,1.028-.15,1.482-.228.378-.022.728-.047,1.057-.1.954-.178,1.907-.4,2.764-.6a16.61,16.61,0,0,0,1.732-.425c.979-.278,1.908-.553,2.789-.857.828-.275,1.657-.579,2.414-.879,1.957-.857,3.893-1.835,5.75-2.814v-.128c.128-.075.256-.147.354-.2C627.842,223.5,629,222.6,629.2,222.5v-.1c.25-.15,1.357-1.1,1.632-1.254v-.153c.1-.072.253-.15.325-.2a26.422,26.422,0,0,0,8.47-1.783c.15-.025.275-.128.475-.153.957-.525,1.989-1.057,2.992-1.582v-.153a7.493,7.493,0,0,1,.879-.475,19.905,19.905,0,0,1,2.639.654,39.767,39.767,0,0,0,4.146.5,44.219,44.219,0,0,0,5.779-.047c1.279-.253,2.539-.5,3.842-.707.957-.347,1.911-.675,2.815-1.053a3.344,3.344,0,0,0,.4-.15c.428-.178.831-.325,1.182-.475a3.292,3.292,0,0,1,.653-.253c3.193-2.061,4.447-2.968,4.65-3.064a14.616,14.616,0,0,1,1.507-1.51h.125c.128-.225.428-.5.857-1.082h.125c.625-.851,1.329-1.708,1.933-2.536a13.331,13.331,0,0,0,1.482-.175c.507-.078,1.032-.125,1.46-.15a12.619,12.619,0,0,0,1.329-.579c.2-.078.4-.2.731-.3a2.7,2.7,0,0,1,.3-.225,5.393,5.393,0,0,0,2.386-3.718,3.539,3.539,0,0,0,.153-1.307c1.482-.175,2.186-.529,2.236-1.986-.075,0-.15,0-.175.05-.429.857-1.382.754-2.139.553-.075,0-.1,0-.1-.078v-.072c-.225-.025-.25-.178-.425-.253a3.353,3.353,0,0,1-1.861.682h-.075c.075.025.075.072.075.122a5.749,5.749,0,0,0,.754,1.51,3.911,3.911,0,0,1-.829,3.014,5.287,5.287,0,0,1-1.031.932,4.917,4.917,0,0,1-2.789.775c-.275-.072-.679-.1-1.054-.175-.854-.025-1.032,0-2.586.075-.732.553-1.938,1.885-.882,2.514.325-1.257,1.107-1.357,2.386-1.332.228.832-2.386,2.239-2.386,3.04h-.125v.075h-.175c0,.153-.15.2-.225.378h-.1v.1h-.2v.15c-.228.05-.228.05-.654.478v.128c-.125,0-.175.022-.228.022a30.972,30.972,0,0,1-5.072,3.192c-.353.175-.782.376-1.185.553a2.494,2.494,0,0,1-.425.128,26.4,26.4,0,0,1-8.993,2.032c-2.036-.028-2.264-.028-3.443-.125a2.936,2.936,0,0,0-.706-.053,58.958,58.958,0,0,1-7.007-1.657,1.729,1.729,0,0,0-1.132.553,2.548,2.548,0,0,0,.351.15.7.7,0,0,1,.078.253,11.094,11.094,0,0,0-2.564,1.3c0,.05-.1.076-.1.076-2.264.982-5.053,2.414-7.589,2.364.075-.151.175-.25.2-.328-.3,0-.6.05-.854.025a2.782,2.782,0,0,1-2.16.5v.15c-.075,0-.175,0-.175.05-.078.025-.078.125-.078.154.3.072.7.1,1.032.2,0,.1,0,.1-.45.429v.1c-.079,0-.1.05-.2.05a42.706,42.706,0,0,1-12.614,6.885c-.651.228-1.354.453-2.007.632-.2.072-.5.122-.832.2-.528.125-1.082.275-1.707.375-.654.153-1.282.3-1.939.428-.25.05-.55.125-.85.175-.3,0-.653.075-1.057.075-.454.078-.954.15-1.432.225-.3.05-.628.078-.929.1-1.082.025-2.136.025-3.193.05l-4.2-.05a2.42,2.42,0,0,1-.45-.025c-.681-.078-1.282-.125-1.86-.2a38.848,38.848,0,0,1-4.522-.932c-1.282-.328-2.464-.732-3.743-1.179-1.082-.429-2.239-.882-3.418-1.41a6.468,6.468,0,0,0-.7-.325c-.557-.225-1.007-.478-1.56-.7-.478-.325-.9-.6-1.357-.882-.429-.3-.879-.576-1.357-.85a16.813,16.813,0,0,0-2.286-1.66v-.125c-2.761-2.21-2.761-2.21-2.964-2.238v-.147h-.05v-.178c-.15,0-.175-.047-.175-.075-.2-.15-.453-.4-1.407-1.282a8.494,8.494,0,0,0-2.011.075c.075.4.4.6.629.929-3.621.654-7.467-.929-10.807-2.636a8.559,8.559,0,0,0-.8-.429c-.754-.428-1.432-.8-2.083-1.179.022-.3.122-.3.372-.378a1.163,1.163,0,0,0-1.2-.579,35.974,35.974,0,0,1-13.014,1.336c-1.082-.282-2.136-.482-3.217-.707a23.524,23.524,0,0,1-3.621-1.307c-.55-.225-1.1-.525-1.682-.828-1.332-.729-2.689-1.585-4.018-2.486v-.128a5.108,5.108,0,0,1-.678-.378v-.1a18.03,18.03,0,0,1-3.443-3.343c-.3-.4-.882-.957-.857-1.482,1.032-.025,2.261.225,2.239,1.4a1.08,1.08,0,0,0,.325-.1c.4-.782-.651-1.735-1.079-2.389a16.587,16.587,0,0,0-2.564-.2,4.592,4.592,0,0,1-5.554-2.964c0-.025-.022-.025-.022-.075,0-.378,0-.807.022-1.282a1.941,1.941,0,0,1,.651-1.432v-.578a6.61,6.61,0,0,1-.651-.15,4.115,4.115,0,0,1-1.1-.553c-.7.4-1.007.7-1.886.425-.225-.225-.531-.475-.831-.726-.576,1.333,1.01,1.986,2.111,1.986,0,1.579.228,3.593,1.689,4.572l.022.05v.125h.175v.128c.175.05.175.05,1.185.7a11.714,11.714,0,0,0,4.543,1.154,34.947,34.947,0,0,0,2.086,2.914h.128a7.4,7.4,0,0,0,1.933,2.01v.125h.178v.128c.147.047.147.047.678.5v.153c.2.047.2.047,1.782,1.254,1.532.954,1.607.954,2.939,1.761a.365.365,0,0,1,.153.05M532.885,68.669a39.409,39.409,0,0,1,4.753-2.736c.525-.253,1.1-.5,1.657-.782a55.727,55.727,0,0,1,15-4.046c0-.625.978-.929,1.1-1.454-.653-.05-1.282-.05-1.935-.125,0-.528,2.539-2.367,2.764-2.439v-.153a22.066,22.066,0,0,1,6-2.561c.3-.05.528-.125.857-.2.625-.15,1.2-.253,1.885-.354a32.839,32.839,0,0,1,4.947.128.682.682,0,0,1,.178.1c-.1.225-.429.628-.478.779.2,0,.4-.028.55-.028.807-.75.857-.55,2.064-.275,0-.151.025-.25.025-.379a6.575,6.575,0,0,1-.878-.275,1.04,1.04,0,0,0,.025-.25h.147v-.128h.178c0-.372,1.382-1.5,1.735-1.6v-.128h.1v-.15c1.154-.879,1.154-.879,1.282-.907a1.875,1.875,0,0,1,1.053-.8v-.125a8.63,8.63,0,0,1,.854-.55c1.482-1.032,3.067-1.986,4.625-2.89.828-.378,1.582-.728,2.411-1.057.954-.4,1.935-.832,2.917-1.157a4.473,4.473,0,0,1,.729-.275c1.154-.4,2.261-.779,3.443-1.107.172-.025.375-.1.475-.1,1.1-.225,2.186-.425,3.318-.578a44.446,44.446,0,0,1,4.525-.55c.222-.025.5-.025.75-.075l1.079.025c2.817,0,3.168,0,4.7.076h.4c2.036.25,2.461.3,3.693.525.25.05.654.1,1.107.153.1.05.226.1.328.15.325.05.729.15,1.029.228.9.25,1.858.475,2.789.8h.1c.478.2,1.1.4,1.607.606a10.34,10.34,0,0,1,.982.35c.625.275,1.182.6,1.782.854a51.625,51.625,0,0,1,12.964,9.824c1.082,1.257,1.082,1.257,1.285,1.382,1.607-.25,1.607-.25,1.782-.379a1.516,1.516,0,0,1-.325-.65,17.121,17.121,0,0,1,6.86.2,15.629,15.629,0,0,1,9.393,5.807,8.688,8.688,0,0,1-1.932-.057c.35.453.678.932,1.082,1.382.225.1,1.279.229,2.436.454,1,.2,2.086.428,2.689.581a94.665,94.665,0,0,1,9.646,3.64,1.285,1.285,0,0,1,.4.153c.429.25.857.451,1.2.679.957.578,1.911,1.082,2.867,1.632v.125c.8.529,2.889,1.711,3.164,2.461.454,0,2.339,2.214,2.564,2.514h.1c.047.153.047.153,1.882,2.361a3.874,3.874,0,0,1,.428.679c1.279,1.91,1.382,2.013,2.086,3.167.225.478.45.957.654,1.432a12.262,12.262,0,0,1,.85,1.836c.075.072.1.072.1.175.575,1.61.625,1.61.753,1.735a61.53,61.53,0,0,1,1.5,7.085,24.687,24.687,0,0,1-.147,8.593,21.369,21.369,0,0,1-1.235,3.943c-.122,2.114-.2,4.171-.225,6.26-.147.775-.325,1.5-.525,2.286-.228.35-.4.729-.579,1.029a6.834,6.834,0,0,1-1.032,1.382,8.374,8.374,0,0,1-1.179,1.2v.1c-.125.025-.957.579-1.632.954a1.5,1.5,0,0,0-.4.228,13.252,13.252,0,0,1-6.107.75,66.988,66.988,0,0,0,6.306,12.767c.679,1.1,1.382,2.211,2.061,3.343.2.35.429.7.628,1.029a16.723,16.723,0,0,0,1.029,1.457c.754,1.232,1.536,2.489,2.289,3.718,1.382,2.189,2.664,4.4,3.943,6.61.228.453.429.879.654,1.232.453.9.882,1.682,1.36,2.561.022.1.1.2.122.3.429,1.079.857,2.186,1.307,3.243.325.8.7,1.632,1.028,2.436.454,1.432.857,2.764,1.186,4.146a61.545,61.545,0,0,1,1.254,6.86c.125,3.365-.275,6.682-.475,10-.229.879-.454,1.732-.7,2.636.05-.05.122-.05.225-.1,0-.053.025-.078.025-.1h.2c.729-1.707,4.674-.653,3.442,1.486a6.1,6.1,0,0,1-1.307.425c.228.654.428,1.1.025,1.758a.691.691,0,0,0-.25-.025,2.4,2.4,0,0,0-2.739-.854.8.8,0,0,0-.428.153,1.525,1.525,0,0,0,.428.15,3.25,3.25,0,0,0,.754.275,8.858,8.858,0,0,0,1.357.8v.15c.226,0,.451.479.579.632h.178a7.182,7.182,0,0,1,1.2,4.2,5.881,5.881,0,0,1-.454,1.579c-.678,1.132-.678,1.132-.75,1.232h-.1v.125c-.528.3-.978.582-1.482.907a8.843,8.843,0,0,1-1.485.425c-.225.075-.576.153-.9.275,1.107,1.408.957,2.918-.729,3.743a5.126,5.126,0,0,1-.728-.072,5.672,5.672,0,0,0-.654-.025,1.4,1.4,0,0,0-.678-1.307,1.822,1.822,0,0,0-1.457-.125c-.25.1-.525.15-.775.275a8.115,8.115,0,0,0-.7.453c0,.05-.025.128-.025.15h-.178c-.654,1.282-.8,3.268.828,3.618a2.384,2.384,0,0,0,.6.1c.05-.05.05-.078.153-.078a3.478,3.478,0,0,0,1.029-.879h.151a1.9,1.9,0,0,1-1.2,2.186l-.078.05c-.225,0-.429.025-.654.025-.1,0-.2.025-.35.025a7.235,7.235,0,0,1-1.585,4.6h-.175v.1c-.125.075-.2.2-.35.2v.172a16.439,16.439,0,0,1-1.632.831,13.112,13.112,0,0,1-2.414.7,5.265,5.265,0,0,1-.957.122c-.351.053-.654.078-1.079.1a27.8,27.8,0,0,1-1.732,2.311c-.279.35-.6.678-.857,1a.25.25,0,0,0-.05.178h-.147c-.832.779-.832.779-.882.979h-.175v.153h-.1v.122c-.3.1-.328.128-.354.328-.4-.022-.628.453-.857.6v.1c-1,.625-1.908,1.229-2.839,1.882v.1a45.9,45.9,0,0,1-4.293,2.061c-.279.1-.532.175-.757.275-.429.125-.85.228-1.254.328a2.013,2.013,0,0,0-.4.128,33.184,33.184,0,0,1-12.436.85c-.028,0-.2-.071-.225-.071a24.488,24.488,0,0,1-4.4-1.085.415.415,0,0,0-.279.078,29.245,29.245,0,0,1-6.2,3.089,20.359,20.359,0,0,1-6.91,1.182c-.654.525-1.332,1.054-1.986,1.632v.153c-.528,0-1.357.929-1.81,1.229v.125c-.175.053-1.254.829-3.946,2.536a69.115,69.115,0,0,1-7.761,3.521,1.283,1.283,0,0,1-.429.125c-.979.3-1.911.6-2.814.854-.05,0-.1.075-.175.075-.654.128-1.157.25-1.532.328a10.186,10.186,0,0,0-1.607.35c-.507.075-.907.1-1.235.178-.372.025-.753.075-1,.1a13.3,13.3,0,0,1-1.457.175c-.829.075-1.507.175-2.789.25H602.79c-1.254-.025-2.536,0-3.793-.025-.2-.05-.475-.072-.879-.15-.606-.075-1.26-.1-1.911-.2-.854-.128-1.71-.256-2.464-.381-.729-.15-1.382-.3-2.036-.475-1.279-.3-2.483-.7-3.718-1.107-1.157-.378-2.261-.831-3.418-1.257-.25-.1-.528-.225-.753-.328-.954-.425-1.933-.929-2.864-1.382-1.758-.929-3.468-1.957-5.228-3.112a14.866,14.866,0,0,0-1.707-1.31c-.25-.15-.25-.15-.325-.2v-.125c-1.1-.828-2.085-1.807-3.142-2.764a6.372,6.372,0,0,0-1.707.178l-3.971-.053c-.954-.225-1.911-.425-2.864-.6-.451-.153-1.029-.353-1.483-.557-.25-.1-.553-.2-.854-.3a25.112,25.112,0,0,1-5.578-3.139h-.4a11.588,11.588,0,0,0-1.254.35,33.313,33.313,0,0,1-15.481-.6c-.576-.175-1.1-.375-1.657-.579-.7-.225-1.357-.45-2.086-.75-2.889-1.632-2.889-1.632-3.993-2.289v-.175a26.433,26.433,0,0,1-3.093-2.489,10.233,10.233,0,0,1-.978-1.132h-.1c-.954-1.1-.954-1.1-1.032-1.279h-.125a15.465,15.465,0,0,0-1.685-2.385,17.675,17.675,0,0,1-2.611-.429,7.663,7.663,0,0,1-4.021-2.361,6.219,6.219,0,0,1-1.232-3.893v-.357a2.844,2.844,0,0,1-1.029-.2,1.628,1.628,0,0,1-1.182-2.061.453.453,0,0,1,.25-.05,1.176,1.176,0,0,0,.956.829,1.472,1.472,0,0,0,1.032-.072,1.64,1.64,0,0,0,.451-.225c.828-1.382.878-2.139-.1-3.468a1.026,1.026,0,0,0-.325-.178,3.923,3.923,0,0,0-.957-.528,2.226,2.226,0,0,0-1.607-.025,1.975,1.975,0,0,0-.554.654c-.025.278-.1.5-.1.653-.2.2-1.082.128-1.382.128-1.607-.7-1.632-2.035-1-3.346.25-.275.25-.275.25-.475-.225,0-.5-.053-.756-.075a5.532,5.532,0,0,1-4.343-3.518c-.454-2.364-.153-4.049,1.757-5.779.025,0,.15-.025.175-.025V183.6a20.283,20.283,0,0,1,2.564-1.032c.1-.025.175-.05.2-.05a.312.312,0,0,0-.2-.225c-.779-.678-2.386.328-2.939.807-.932-.453-.053-1.235-.075-1.81-1.961-.353-1.936-1.607-.429-2.589a3.074,3.074,0,0,1,2.311.3v.128c.25,0,.478.45.654.625.025-.025.025-.025.125-.072a6.977,6.977,0,0,0-.55-2.136,8.5,8.5,0,0,1,.25-2.989c-.025-1.207-.1-2.467-.2-3.671a40.947,40.947,0,0,1,1.21-9.071,36.02,36.02,0,0,1,.979-3.693c.854-2.111,1.81-4.221,2.764-6.332.35-.7.678-1.51,1.029-2.239.178-.325.4-.6.6-.9.3-.5.654-1.053.978-1.557,1.811-2.789,3.646-5.6,5.507-8.417,3.668-5.578,7.285-11.282,10.4-17.21.45-1.235,1.053-2.439,1.5-3.646a17.392,17.392,0,0,0-1.932.025,10.912,10.912,0,0,1-5.779-1.708c-.857-.678-.857-.678-1.057-.728v-.15h-.1v-.128h-.128a23.553,23.553,0,0,1-1.529-2.236,9.79,9.79,0,0,1-.954-3.464,56.9,56.9,0,0,1-.056-5.91c-2.336-5.625-1.429-12.385-.022-18.164a8.343,8.343,0,0,0,.425-1.107,58.533,58.533,0,0,1,2.992-6.457,49.32,49.32,0,0,1,5.05-6.332h.1v-.175h.2v-.1h.128c.075-.153.2-.175.2-.354h.178v-.1h.125c.025-.1.025-.125.075-.15a.217.217,0,0,1,.153-.05v-.153c.775-.55,1.482-1.125,2.257-1.707m6.032,22.238a33.734,33.734,0,0,0-.4,5.253c.075-.228.225-.453.325-.7,2.036-3.846,5.453-7.264,6.507-11.382v-1.41a11.172,11.172,0,0,0-.753-1.91c-1.129-.022-2.861,3.089-3.315,3.771-.429,1.029-.553,2.186-1.382,2.964-.1.557-.7,1.86-.378,2.361-.05.707-.225.582-.6,1.032ZM555.855,60c-.279.228-.354.35-.807.729v.2c2.061.072,4.1.072,6.132.172.3.053.629.053.957.1h.825a8.812,8.812,0,0,1,3.218.678c.178-.025.328-.05.528-.078A60.056,60.056,0,0,1,570.9,55.73c0-.075.078-.15.078-.25a21.511,21.511,0,0,0-7.914.55c-.278.053-.553.15-.831.225-.55.2-1.1.379-1.708.607A17.817,17.817,0,0,0,555.855,60m4.018,152.944a6.6,6.6,0,0,1-.7.282,1.676,1.676,0,0,0,.681.653,7.985,7.985,0,0,0,.8.475c.7.376,1.357.729,1.657.879a24.316,24.316,0,0,0,7.614,2.414c.757-.05,1.485-.05,2.214-.078-.253-.625-2.439-1.983-2.739-2.236-.779-.754-1.61-1.482-2.361-2.186-.354-.529-1.964-2.211-1.964-2.839h-.147v-.075c-.379.15-2.617,1.557-3.971,2.235-.078.075-.225.1-.253.15-.275.1-.6.229-.828.325m37.616-11.607c.45.328-.253.854-.528,1.232a2.327,2.327,0,0,0-.2.553,7.273,7.273,0,0,0-.1,3.668,15.03,15.03,0,0,0,1.807,3.946,18.648,18.648,0,0,0,1.057,1.682h.122a11.609,11.609,0,0,0,2.313,2.386v.153c.1.022.6.475,1.1.828a.35.35,0,0,1,.178.1v.175c.753.428,1.482.882,2.161,1.36.629.3,1.179.55,1.71.8.5.2,1.029.4,1.479.557a10.011,10.011,0,0,0,1.057.3,15.3,15.3,0,0,0,2.789.707c.5.076.979.151,1.482.2h.226c.881.025,1.81-.05,2.764-.1a22.853,22.853,0,0,0,7.614-1.782v-.125c-3.193-1.56-4.4-3.518-5.8-6.507-.4-.1-1.157.3-1.686.525a.64.64,0,0,0-.325.128c-.453.022-.857.05-1.279.075-.128.047-.228.854-.4,1.057a.878.878,0,0,1-.6-.153,9.177,9.177,0,0,1,.125-.957,1.56,1.56,0,0,0-.3-.1c-.447-.128-.85-.253-1.3-.378a4.844,4.844,0,0,0-.4-.275,3.5,3.5,0,0,0-1.507-.579,1.275,1.275,0,0,1-.6.654h-.679a7.468,7.468,0,0,0-1.028.022l-1.107-.022c.125.854.325,1.557,1.082,1.761a2.42,2.42,0,0,0,.753.047c.075-.5.075-.7.275-.929a1.8,1.8,0,0,1,.428-.328c1,0,1.633,1.057.6,1.582a7.587,7.587,0,0,0-1.079.078c-.275.025-.653.05-.878.075a3.444,3.444,0,0,0,.878.8.394.394,0,0,0,.2.053c.954-.028,1.3-.028,1.229,1.029-.9.525-1.132.1-1.382-.657-.05,0-.05-.022-.05-.022a5.95,5.95,0,0,0-1.007-.6.205.205,0,0,0-.172-.05c-.025.475-.128.654.122.982.078,0,.078.047.153.047l-.075.8s0,.025-.078.025c-.55.478-1.179.454-1.454.128-.253-.228-.3-.654.025-1.254a1.875,1.875,0,0,1,.929-.306,4.311,4.311,0,0,0-.8-2.561l-.053-.028h-.172c-.328.529-.932.757-1.357,1.232.075.128.075.128.075.857a1.2,1.2,0,0,1-2.014,0c.053-1.432.531-1.56,1.914-1.285,1.279-.9,1.382-1.579,1.029-3.039h-.1a2.167,2.167,0,0,1-1.686.807,4.374,4.374,0,0,1-.425.678c-.982.05-1.582-.3-1.157-1.357.9-.353.957-.253,1.582.35,3.193.05.757-5.475-.025-6.736h-.175a3.924,3.924,0,0,1-1.507,1.81,1.627,1.627,0,0,1-1.282.05c-.075-.2-.125-.478-.325-.6a3.266,3.266,0,0,1-3.4-1.335,1.1,1.1,0,0,0,.328-.072c.754-.1,1.786.2,2.136-.7-.575-.1-1.307-.606-1.082-1.285,1.382-1.029,2.364-1.429,1.132-3.064-.479-.328-1.432-.628-1.882-.225a1.935,1.935,0,0,1-.229,1.254,2.488,2.488,0,0,1-1.832.579h-.4c-.632.328-1.461.707-.982,1.507a3.461,3.461,0,0,0,.553-.3h.829a2.928,2.928,0,0,0,.678.076m8.921,4.65a10.544,10.544,0,0,0,.5,2.964,2.6,2.6,0,0,0,.375.1h.028a.98.98,0,0,0,.426-.128.889.889,0,0,1,.225-.753,1.887,1.887,0,0,0-.651-1.182c-.328-.4-.653-.751-.9-1m.25-.229a6.239,6.239,0,0,0,.653.882c.225.25.55.654,1.054,1.307a2.7,2.7,0,0,1,.429.153.853.853,0,0,1,.3.5c.225.226.428.429.678.654a2.367,2.367,0,0,0,.754.375,5.748,5.748,0,0,0,2.01,1.432c.55.253,1.182.453,1.707.654.1,0,.1.05.2.05l.1-.05a5.245,5.245,0,0,0,.025-.628c-.075-.175-.225-.375-.3-.579a4.442,4.442,0,0,0-1.71-1.757,14.368,14.368,0,0,0-2.74-1.483c-.375-.153-.7-.3-1.028-.428-.3-.178-.629-.275-.879-.429-.2-.15-.4-.275-.6-.4a1.831,1.831,0,0,0-.653-.253m.428,3.671a2.153,2.153,0,0,0,.2,1,1.058,1.058,0,0,0,.428.682,4.26,4.26,0,0,0,1.007-.028c.075,0,.1-.05.2-.05a5.838,5.838,0,0,1,.128-1.132c.4-.275.4-.275.478-.453a.649.649,0,0,0-.753-.3,11.555,11.555,0,0,0-1.485.275Zm45.6-143.955a.286.286,0,0,0-.075.229,6.09,6.09,0,0,1,.4,1.057,18.412,18.412,0,0,1,1.054,5.879,24.412,24.412,0,0,1-.625,7.185c.753.128,1.482.2,2.31.3.651.2,1.3.429,2.058.657a3.194,3.194,0,0,0,1.26.579,2.419,2.419,0,0,1,1.558-1.157c1.253.879-.554,1.107-.554,2.008a21.486,21.486,0,0,1,3.54,4.85,10.675,10.675,0,0,1,1.01-.575,1.937,1.937,0,0,1,.55-.05c.15,0,.225.076.4.125a1.554,1.554,0,0,1,1.128.828c.178.1.2.253.375.454a7.164,7.164,0,0,1,1.332.453c.178.122.832.753,1.035.753.651-1.86,1.279-3.746-1.182-4.4-.1.228-.178.429-.3.654a1.907,1.907,0,0,1-1.207.678,1.174,1.174,0,0,1-1.154-.553,1.469,1.469,0,0,1,0-1.81,2.675,2.675,0,0,1,.754-.6,1.435,1.435,0,0,0,.45.075,1.553,1.553,0,0,1,1.357.982,12.51,12.51,0,0,0,1.86.7,4.1,4.1,0,0,0-1-2.486,1.81,1.81,0,0,1-1.282-.753c.022-.854.225-1.411,1.307-1.411,1.053.328,1.053.957.628,1.761a9.618,9.618,0,0,1,.85,2.411c.253-.2.632-.55,1.057-.876.1-1.332-.225-1.585,1.257-2.139,1.307,0,1.735.579,1.735,1.863-.428.85-1.26.929-2.111.9-1.26-.8-1.435.878-1.81,1.76-.128.929-.128,1.858-.2,2.74a7.358,7.358,0,0,1,3.393-.754,1.884,1.884,0,0,1,.45-1.032,2.019,2.019,0,0,1,3.142,1,1.863,1.863,0,0,1-3.593.757c-1.51-.078-3.118.125-3.974,1.482a5.936,5.936,0,0,0-.75,1.986,5.723,5.723,0,0,1,3.139.125c.278-.025.478-.178,1.132-.553,1.611.05,2.086,1.357,1.382,2.614-1.382.929-2.614-.153-2.561-1.56a3.146,3.146,0,0,0-3.57.429,39.223,39.223,0,0,0-2.061,5.025,13.615,13.615,0,0,0-.554,2.211c-.072.731-.072,1.46-.1,2.189.15-.025.2-.025.554-.275a2.442,2.442,0,0,0,.628-.4,12.918,12.918,0,0,1,2.136-.729c1.836.025,3.164.325,2.314,2.261,2.511.375,3.743,2.536,3.693,4.875a3.717,3.717,0,0,0-4.049-1.407v.25a1.887,1.887,0,0,1,.357,2.814c-2.111.678-3.571-.5-4.65,1.71-.053,2.011.325,2.764,2.336,3.565.1-.075.2-.075.429-.075.525-2.085,2.007-1.632,3.843-1.082,1.157.606,3.6,1.057,4.046-.422,0-.1.025-.253.025-.428h-.025a3.421,3.421,0,0,1-3.318-1.633c0-.053,0-.078.025-.1a7.3,7.3,0,0,0,3.293-1.682,9.666,9.666,0,0,0,2.864-4.071,14.866,14.866,0,0,0,1.029-3.843,34.951,34.951,0,0,0,.175-8.971,1.85,1.85,0,0,0-.1-.632c-.228-1.2-.5-2.46-.753-3.665-.028-.078-.028-.178-.079-.2a32.423,32.423,0,0,0-2.714-6.185,41.719,41.719,0,0,0-2.564-4.1c-.978-1.076-1.907-2.133-2.839-3.165-1.407-1.154-2.714-2.336-4.193-3.418-.453-.275-.882-.55-1.407-.854-.325-.228-.754-.425-1.157-.65-.178-.078-.225-.178-.428-.2A37.38,37.38,0,0,0,653.045,65.5a1.493,1.493,0,0,0-.354-.028m7.136,17.217c-1.908,2.136-.5,5.072.581,7.236a73.047,73.047,0,0,1,4.568,7.614c.129.2.2.422.332.625a.523.523,0,0,1,.1-.025v-.475a12.777,12.777,0,0,0-.4-3.793,4.353,4.353,0,0,0-.475-1.51v-.428c.553-.576-.528-2.411-.954-3.014a4.452,4.452,0,0,1-.3-1.279c-.828-1.535-1.908-3.921-3.443-4.95m5.6,10.525v.025c.3,1.66.532,4.425.628,4.853.2-.5.4-1.007.529-1.435.45-1.129.879-2.21,1.307-3.317,0-.854-.225-1.029-1.107-1.126a.577.577,0,0,0-.1.172c-.253.578-.532.678-1.26.828m-.35-2.01a1.035,1.035,0,0,1,.429-.1c.453-.022.625.125,1.053.579h.128c.525.075,1.279.15,1.479.678a6.064,6.064,0,0,0,.882-2.789,2.533,2.533,0,0,0-1.964-1.157c-.172.153-.225.306-.4.478a2.023,2.023,0,0,1-1.182.882c-.1.022-.225.022-.4.047-.129,0-.25.025-.354.025-.172.4.225,1.007.328,1.357m1.382,26.713c.654,5.878,3.468,11.782,6.432,16.985,1.785,2.686,3.168,4.85,4.246,6.582,1.182,1.835,2.01,3.167,2.689,4.221.35.553.7,1.057.957,1.482.875,1.335,1.482,2.236,2.361,3.518.1.178.2.354.3.529a49.872,49.872,0,0,1,3.543,7.285c.225.553.5,1.157.728,1.761.4,1.032.757,2.036,1.057,3.067.125.55.25,1.054.35,1.632a34.622,34.622,0,0,1,.528,9.824c-.078.047-.1.047-.1.125a8.243,8.243,0,0,1-.55-.854,13.587,13.587,0,0,0-1.282-1.711h-.175c-.1.279-.1.279-.125,1.207a.135.135,0,0,0,.1.15,5.051,5.051,0,0,1,1.207,2.914,10.6,10.6,0,0,0-.228,1.532.994.994,0,0,1,.4.1.593.593,0,0,1,.425.178h.3a13.136,13.136,0,0,0,.2-2.817,32.268,32.268,0,0,0,.147-10.3c-.526-2.764-.729-3.443-.754-3.818a.154.154,0,0,1-.075-.153c-.425-1.357-.878-2.739-1.354-4.1-.253-.6-.5-1.2-.729-1.833a2.071,2.071,0,0,0-.3-.678c-.779-1.686-1.585-3.364-2.386-5-.381-.754-.8-1.457-1.232-2.161-.729-1.332-1.51-2.614-2.286-3.921-.3-.475-.682-.982-.957-1.507-.9-1.407-1.807-2.839-2.764-4.271-1.908-3.039-3.868-6.182-5.678-9.324a61.584,61.584,0,0,1-4.347-10.171,7.99,7.99,0,0,0-.654-.478m13.593,77.765a2.981,2.981,0,0,0-.854-.475,1.962,1.962,0,0,1-.125.3,2.715,2.715,0,0,0,0,.9,3.977,3.977,0,0,0,.654,1.307.791.791,0,0,0,.3.178,1.26,1.26,0,0,1,.2.175,2.67,2.67,0,0,0,1.407-.579,1.9,1.9,0,0,1,.831-2.136,5.052,5.052,0,0,1,.625-.475,1.257,1.257,0,0,0-.6-1.01,5.252,5.252,0,0,0-.753-.122,6.665,6.665,0,0,0-1.307,2.232c-.1-.1-.275-.2-.378-.3m-175.183-9.2c-.756,2.889.854,4.775,3.439,5.606.3.047.607.147.932.222.354-.05.679-.1,1.082-.15v-.125a7.555,7.555,0,0,1-2.014-.3,1.668,1.668,0,0,1-1.279-1.2v-1.129c.4-.882.4-.882.428-1.157a1.263,1.263,0,0,1-.857-.4,4.933,4.933,0,0,0-1.5.1,5.47,5.47,0,0,1,1.076-3.493c-.525,0-1.154,1.657-1.3,2.032m1.582-2.361c.475,0,1.432.1,1.432.729-1,.7-.754,1.132.3,1.732a1.166,1.166,0,0,0,.225-.1,7.81,7.81,0,0,1,.828-.6,3.348,3.348,0,0,1,2.793.147,3.277,3.277,0,0,1,1.5,2.286.808.808,0,0,0,.075.428.46.46,0,0,0-.075.3,5.6,5.6,0,0,1-1.332,2.539,2.691,2.691,0,0,0,1.285,2.011.928.928,0,0,0,.25.075c.226-.025.5,0,.676-.025a1.659,1.659,0,0,0,.378-.025c.1-.628.15-.978.732-1.332,0-.15,0-.15-.382-.5a2.9,2.9,0,0,1,.076-2.239,4.438,4.438,0,0,1-.7-.828,4.761,4.761,0,0,1-.8-2.989c.047-.3.35-.879.428-1.257a2.682,2.682,0,0,1-.581-.2,1.735,1.735,0,0,0-1.529.05,1.924,1.924,0,0,0-.257.128.484.484,0,0,1-.147-.028c-.05-.25-.05-.25-.153-.728a1.472,1.472,0,0,1-.5-.829,10.577,10.577,0,0,0-2.564.125,6.405,6.405,0,0,0-.879.353,3.517,3.517,0,0,0-1.082.779m2.085-7.363c-.175.153-.35.3-.553.506-.225.775.025,1.1.529,1.279.278.075.553.15.929.225.053.429-.4.979-.175,1.632h.328c.3-.725,1.582-.854,2.311-.879a3.706,3.706,0,0,1,.05-.753c.078-.178.1-.275.175-.3a.7.7,0,0,0,.075-.354l-.075-.075c-1.132-.275-1.254-.353-1.507-1.507a1.91,1.91,0,0,0-2.086.226m.829,5.5v.153a6.758,6.758,0,0,1,2.361.122.662.662,0,0,0,.306-.05v-.2a1.574,1.574,0,0,1-.4-.075v-.3a7.315,7.315,0,0,1-.678-.278c-.4.028-1.407.053-1.457.628Zm118.02,36.109a1.832,1.832,0,0,1,.629.151c.653-.028,1.282-.028,1.86,0,.575-.529.7-.451,1.557-.451,0,.072-.075.2-.075.275a24.507,24.507,0,0,0,8.318-3.064c.378-.178.728-.379,1.154-.607v-.225c-.351-.075-.729-.275-1.132-.4-1.607-.779-2.989-2.007-4.543-2.764a24.917,24.917,0,0,1-1.686,2.239,32.467,32.467,0,0,1-6.082,4.85M634.3,56.934a6.9,6.9,0,0,0,1,1.51c2.664,4.2,2.664,4.2,2.943,4.722a8.759,8.759,0,0,0,1.76-.25c.651-.075,1.329-.175,1.983-.2a45.3,45.3,0,0,1,7.814,0v-.225a18.273,18.273,0,0,0-7.711-5.022,20.3,20.3,0,0,0-5.731-.929c-.654.122-1.357.275-2.061.4m51.184,124.884a6.458,6.458,0,0,0-.1,3.715c.1,0,.2.028.306.028.25-.028.55-.075.876-.1,0-.05.028-.05.028-.128.6-.425.525-.876.05-1.3-.078-.025-.1-.1-.2-.128.1-.122.125-.2.2-.3a1.679,1.679,0,0,1,.779-.225.443.443,0,0,0,.125-.05,1.416,1.416,0,0,1,1.007-.831,1.231,1.231,0,0,0-1.132-.954,1.287,1.287,0,0,0-.753,0,4.041,4.041,0,0,0-1.182.278m-.328,13.068a1.614,1.614,0,0,1,.628,1.407c.128,0,.153.022.325.022.053.028.228-.022.328-.022a3.9,3.9,0,0,0,.753-.178c.729-.3,1.082-.807,1.207-1.932a7.011,7.011,0,0,1-1.182-2.114,4.95,4.95,0,0,1,.05-1.482c0-.075.053-.2.053-.25a5.2,5.2,0,0,1,1.457-1.585,3.172,3.172,0,0,1,1.407-.45,2.87,2.87,0,0,1,2.236,1.032h.025a1.342,1.342,0,0,0,1.079-.582c0-.55.053-.854-.55-1.107.125-.6.75-.675,1.357-.7-.178-.553-.932-.953-1.786-1.182a8.537,8.537,0,0,0-2.361-.228c-.025,0-.1,0-.128.028a8.4,8.4,0,0,1-.625.828,1.576,1.576,0,0,1-.3.779,1.591,1.591,0,0,0-.325-.178,1.8,1.8,0,0,0-1.482-.047,2.216,2.216,0,0,0-.579.2,5.2,5.2,0,0,0,.425,1.179,6.328,6.328,0,0,1-.6,2.539,3.932,3.932,0,0,1-1.053,1.235c-.025.576.2,1.126.2,1.779-.128.357-.479.757-.557,1.01m1.382-16.21a4.561,4.561,0,0,0,.025.553c0-.1.1-.153.178-.175a5.819,5.819,0,0,1,.678-.579,7.457,7.457,0,0,1,.929-.3,2,2,0,0,0-.906.028,2.572,2.572,0,0,0-.7.3.49.49,0,0,1-.2.175m1.157,11.782c-.15.428-.4,1.913.1,2.114a10.576,10.576,0,0,0,.9-.756,5.894,5.894,0,0,1,.85-.651c.128.1.228.2.4.325a1.751,1.751,0,0,1,.025-1.229c-.4-.025-.954.05-1.157-.25.382-.278.5-.306.429-.857a.522.522,0,0,0-.475,0,4.294,4.294,0,0,0-1.082,1.3m1.207-9.671a5.169,5.169,0,0,1,.2,1.407,4.464,4.464,0,0,1,1.157.25,2.849,2.849,0,0,1,1.232.829c.728-.426.15-1.2.172-1.732a3.692,3.692,0,0,0,.882-.25c.328-.075.525-.325.628-.906a4.461,4.461,0,0,0-.6-.8,1.905,1.905,0,0,0-2.161-.275c-.025.175-.1.328-.1.451-.15.653-.475.857-1.408,1.032m.4,4.171a2.2,2.2,0,0,0-.4.075,1.115,1.115,0,0,0,.025.275,2.76,2.76,0,0,1,1.279-.2,10.58,10.58,0,0,1,1.26.078,1.264,1.264,0,0,0-1.26-.807,1.764,1.764,0,0,0-.954.378c0,.075.05.122.05.2m3.04,9.549a9.61,9.61,0,0,1-1.858.379,1.041,1.041,0,0,1,.3.122c.5-.075,1.079-.1,1.554-.175a4.405,4.405,0,0,0,2.764-1.682h.2a6.109,6.109,0,0,0-.125-5.328c-.4-.5-.4-.5-.5-.5a7.6,7.6,0,0,1,.929,2.013,10.065,10.065,0,0,0,.028,1.529,3.347,3.347,0,0,0-1.485-.2c-.122.354-.55.378-.854.425a4.09,4.09,0,0,1,.125,2.942c-.025.05-.072.05-.15.05v.153c-.3.072-.6.225-.932.275m-181.362-5.829c.022-.075.1-.128.122-.178a1.926,1.926,0,0,1,.857.6,9.381,9.381,0,0,1,.854.828h.279c.022-.453.075-.8.075-1.132a3.01,3.01,0,0,0-1.129-2.311c-.428,0-.428,0-.531.053a1.129,1.129,0,0,0,.078.475,3.983,3.983,0,0,0,.425.3v.025a2.471,2.471,0,0,1-1.232.2,11.1,11.1,0,0,0,.2,1.132m1.479-8.846a7.688,7.688,0,0,1,1.057.876c.025.028.1.028.153.028.4.075.851.253.826.628-.954.5-.628,1.129.1,1.532.075.025.2.075.225.075a6.979,6.979,0,0,0,.728,0c.325-1.107.553-3.243-.528-3.971a1.063,1.063,0,0,0-.35-.1,6.811,6.811,0,0,0-1,0,1.333,1.333,0,0,0-1.21.929m1.285-4.275a1.369,1.369,0,0,0-1.035,0,3.164,3.164,0,0,1,1.035.353,2.884,2.884,0,0,1,.854.729c.025-.078.1-.078.1-.175.025-.025.075-.125,0-.178a1.663,1.663,0,0,0-.954-.729m5.125,15.731c-.753-.025-1.407.429-1.257,1.207.529.3,1.911,1.507,1.257,2.082v.532c.3.175.55.325.854.525h.025c1.585-.15,1.81-1.382,1.758-2.711-.478-.381-1.029.579-1.354.579a8.326,8.326,0,0,0-.328-.857,5.526,5.526,0,0,0-.954-1.357" transform="translate(-503.757 -34.725)" fill="#1a1818"/>
    </g>
  </g>
</svg>
